<svg width="250" height="250" xmlns="http://www.w3.org/2000/svg">
  <path d="M118.34 26l8.97 18.18c5.72.17 11.4.95 16.96 2.32l.05-.2 13.13-15.46 7.86 3-.5 20.28-.22.4a81.1 81.1 0 0113.9 9.82l.4-.45 18.8-7.58 5.57 6.3-9.87 17.72-.6.4a81.1 81.1 0 017.75 15.1l.78-.3 20.18 2.03 2 8.17-16.98 11.1-.82.08c.29 2.75.43 5.52.43 8.29a81.1 81.1 0 01-.55 8.66l.9.1 16.93 11.18-2.04 8.16-20.18 1.94-.73-.29a81.1 81.1 0 01-7.88 15.04l.6.4 9.8 17.77-5.6 6.28-18.77-7.66-.38-.44a81.1 81.1 0 01-13.93 9.8l.19.34.41 20.28-7.87 2.96-13.07-15.5-.05-.25a81.1 81.1 0 01-16.96 2.23v.04l-9.06 18.15-8.34-1.04-4.37-19.6a81.1 81.1 0 01-16.28-6L72.73 209.3l-6.92-4.8 5.08-19.05a81.1 81.1 0 01-11.75-13.09l-19.4 2.6-3.89-7.47L49 153.1a81.1 81.1 0 01-4.26-17.2l-18.23-6.7.02-8.42 18.26-6.62a81.1 81.1 0 014.28-17.2L36.04 82.53l3.93-7.44 19.4 2.68a81.1 81.1 0 0111.77-13.07l-4.97-19.05 6.93-4.77 16.15 11.64a81.1 81.1 0 0116.28-5.95L110 27l8.35-1zm4.55 45.65a53.59 53.59 0 104.21 107.1 53.59 53.59 0 00-4.21-107.1zm-15.47 67.99a14.44 14.44 0 110-28.88 14.44 14.44 0 010 28.88zm35.16 0a14.44 14.44 0 110-28.88 14.44 14.44 0 010 28.88z" fill="#FFF" fill-rule="nonzero"/>
</svg>